<svg version="1.1" id="Layer_1" xmlns="http://www.w3.org/2000/svg" xmlns:xlink="http://www.w3.org/1999/xlink" x="0px" y="0px"
	 width="100%" viewBox="0 0 2124 570" enable-background="new 0 0 2124 570" xml:space="preserve">
<path fill="#50317C" opacity="1.000000" stroke="none" 
	d="
M2083.000000,571.000000 
	C2055.979004,571.000000 2028.958130,571.000000 2001.468628,570.531372 
	C2001.000000,380.375122 2001.000000,190.687561 2001.000000,1.000000 
	C2029.354126,1.000000 2057.708252,1.000000 2086.690186,1.368684 
	C2102.257568,3.563088 2112.882080,11.857160 2119.727051,24.722965 
	C2122.502686,29.940296 2123.301514,36.209465 2125.000000,42.000008 
	C2125.000000,204.020889 2125.000000,366.041779 2124.619629,528.708679 
	C2124.114746,531.669861 2124.443848,534.122070 2123.792725,536.278259 
	C2119.170654,551.584167 2110.585938,563.385864 2094.476318,568.141724 
	C2090.698975,569.256836 2086.827881,570.055664 2083.000000,571.000000 
z"/>
<path fill="#B92081" opacity="1.000000" stroke="none" 
	d="
M167.000000,571.000000 
	C134.979111,571.000000 102.958214,571.000000 70.468658,570.531372 
	C70.000000,380.375122 70.000000,190.687561 70.000000,1.000000 
	C102.020897,1.000000 134.041794,1.000000 166.531342,1.468657 
	C167.000000,191.624878 167.000000,381.312439 167.000000,571.000000 
z"/>
<path fill="#A82380" opacity="1.000000" stroke="none" 
	d="
M391.000000,1.000000 
	C422.020905,1.000000 453.041779,1.000000 484.531342,1.468657 
	C485.000275,62.902924 485.000519,123.868530 484.562134,184.904663 
	C482.859680,184.975189 481.595886,184.975189 480.269043,184.975189 
	C480.269043,252.625977 480.269043,319.710693 480.269043,386.833374 
	C482.022308,386.956573 483.511505,387.061249 485.000458,387.624146 
	C485.000153,449.054932 485.000061,510.027466 485.000000,571.000000 
	C451.312439,571.000000 417.624878,571.000000 383.468658,570.531372 
	C383.000183,509.097015 383.000366,448.131317 383.464478,387.096069 
	C390.081573,387.026489 396.234802,387.026489 402.584625,387.026489 
	C420.638092,319.632965 438.633179,252.457352 456.640259,185.237106 
	C444.134338,185.237106 432.174896,185.237106 420.357025,185.237106 
	C416.190033,200.722992 412.105682,215.956711 407.990173,231.182022 
	C403.046417,249.471344 398.076172,267.753510 392.759857,285.869324 
	C391.934906,283.357788 391.060455,281.015991 391.058685,278.673584 
	C390.989716,186.115753 391.000000,93.557869 391.000000,1.000000 
z"/>
<path fill="#56317C" opacity="1.000000" stroke="none" 
	d="
M2000.531372,1.000000 
	C2001.000000,190.687561 2001.000000,380.375122 2001.000000,570.531372 
	C1971.645752,571.000000 1942.291504,571.000000 1912.468628,570.531372 
	C1912.000977,507.763733 1912.001831,445.464783 1912.325439,383.012573 
	C1918.583374,378.583160 1925.326416,375.072113 1930.267822,369.854736 
	C1938.048584,361.639618 1942.604858,351.699036 1944.319580,339.982910 
	C1946.869019,322.564728 1942.302734,307.729126 1930.545654,295.446777 
	C1925.164185,289.824829 1917.585083,286.306458 1911.094238,281.436951 
	C1911.456665,279.083038 1911.950317,277.127441 1911.961426,275.169098 
	C1912.023926,264.074554 1911.970825,252.979385 1912.120972,241.571777 
	C1921.350098,236.137619 1930.415283,231.016113 1940.134766,225.525024 
	C1934.592285,217.718613 1929.735962,210.878510 1925.118408,203.695251 
	C1925.571533,201.053085 1925.971802,198.754196 1925.973022,196.455109 
	C1926.006714,131.303421 1926.000000,66.151711 1926.000000,1.000000 
	C1950.687622,1.000000 1975.375122,1.000000 2000.531372,1.000000 
z"/>
<path fill="#5F2F7D" opacity="1.000000" stroke="none" 
	d="
M1816.000000,571.000000 
	C1792.645752,571.000000 1769.291504,571.000000 1745.468628,570.531372 
	C1745.000366,509.097595 1745.000610,448.132538 1745.464722,387.096252 
	C1754.845825,387.025085 1763.763184,387.025085 1772.689941,387.025085 
	C1772.689941,375.703583 1772.689941,364.994751 1772.689941,353.832642 
	C1767.255615,353.832642 1762.128418,353.832642 1757.000610,353.374542 
	C1757.000366,335.666748 1757.000732,318.417053 1757.448975,301.096283 
	C1760.159424,301.025208 1762.421875,301.025208 1764.736938,301.025208 
	C1764.736938,289.666748 1764.736938,278.913452 1764.736938,268.153137 
	C1762.983887,268.034729 1761.492554,267.933990 1760.000610,267.375214 
	C1760.000488,250.333710 1760.000854,233.750229 1760.459717,217.095657 
	C1764.517700,217.024551 1768.117310,217.024551 1771.670898,217.024551 
	C1771.670898,206.011475 1771.670898,195.630386 1771.670898,184.834061 
	C1753.229126,184.834061 1735.115601,184.834061 1717.001221,184.375793 
	C1717.000244,122.945030 1717.000122,61.972515 1717.000000,1.000000 
	C1754.687622,1.000000 1792.375122,1.000000 1830.531372,1.468657 
	C1830.999878,64.902901 1830.999634,127.868492 1830.684082,190.985107 
	C1828.596069,192.570663 1826.931519,194.169937 1825.034424,195.414505 
	C1802.566406,210.154465 1798.869019,243.118301 1809.013550,263.893951 
	C1814.284424,274.688385 1823.782959,281.018951 1833.537598,286.927399 
	C1832.797607,289.294800 1832.069336,291.350220 1832.053223,293.411224 
	C1831.939087,307.978516 1831.971191,322.546936 1831.633301,336.965759 
	C1828.933716,332.376923 1826.557617,327.937378 1824.079834,323.307739 
	C1814.501099,328.959747 1804.875122,334.639648 1795.321777,340.276611 
	C1799.910278,352.870392 1806.718872,363.705048 1816.907227,372.563538 
	C1816.543213,375.758240 1816.036499,378.555756 1816.034546,381.353577 
	C1815.989624,444.569031 1816.000000,507.784515 1816.000000,571.000000 
z"/>
<path fill="#A22480" opacity="1.000000" stroke="none" 
	d="
M485.000763,184.834137 
	C485.000519,123.868530 485.000275,62.902924 485.000000,1.468657 
	C514.354248,1.000000 543.708435,1.000000 573.531372,1.468657 
	C574.000183,62.902683 574.000427,123.868050 573.536621,184.903809 
	C566.478760,184.974197 559.884766,184.974197 553.314575,184.974197 
	C553.314575,252.656265 553.314575,319.667450 553.314575,387.166138 
	C566.417725,387.166138 579.209351,387.166138 592.000610,387.624390 
	C592.000122,449.055084 592.000061,510.027527 592.000000,571.000000 
	C556.645752,571.000000 521.291565,571.000000 485.468658,571.000000 
	C485.000061,510.027466 485.000153,449.054932 485.464539,387.554565 
	C495.519714,387.026764 505.110565,387.026764 514.689819,387.026764 
	C514.689819,319.349915 514.689819,252.338272 514.689819,184.834137 
	C504.588409,184.834137 494.794586,184.834137 485.000763,184.834137 
z"/>
<path fill="#662E7D" opacity="1.000000" stroke="none" 
	d="
M1716.531372,1.000000 
	C1717.000122,61.972515 1717.000244,122.945030 1716.537354,184.448196 
	C1694.153320,184.978851 1672.232422,184.978851 1650.306641,184.978851 
	C1650.306641,252.633972 1650.306641,319.663910 1650.306641,387.166595 
	C1662.073608,387.166595 1673.537354,387.166595 1685.000488,387.624817 
	C1684.999878,449.055328 1685.000000,510.027679 1685.000000,571.000000 
	C1660.312378,571.000000 1635.624878,571.000000 1610.468628,570.531372 
	C1610.000366,509.097046 1610.000732,448.131439 1610.429199,387.073120 
	C1611.238281,385.195953 1611.950317,383.411774 1611.952271,381.626831 
	C1612.011353,327.730774 1612.000366,273.834656 1612.000366,219.938538 
	C1612.000366,209.625092 1612.075684,199.310425 1611.911743,188.999588 
	C1611.889526,187.601349 1610.667725,186.222183 1610.000732,184.375916 
	C1610.000122,122.945107 1610.000000,61.972553 1610.000000,1.000000 
	C1645.354248,1.000000 1680.708496,1.000000 1716.531372,1.000000 
z"/>
<path fill="#752B7E" opacity="1.000000" stroke="none" 
	d="
M1352.000000,1.000000 
	C1377.354248,1.000000 1402.708496,1.000000 1428.531372,1.468657 
	C1429.000488,62.902397 1429.000854,123.867485 1428.537354,184.904358 
	C1419.812500,184.976166 1411.551636,184.976166 1403.307007,184.976166 
	C1403.307007,252.645691 1403.307007,319.666077 1403.307007,387.167328 
	C1412.074097,387.167328 1420.537598,387.167328 1429.000488,387.625488 
	C1428.999878,449.055786 1429.000000,510.027893 1429.000000,571.000000 
	C1396.312378,571.000000 1363.624878,571.000000 1330.468628,570.531372 
	C1330.000000,505.792603 1329.989868,441.522552 1330.028809,377.252502 
	C1330.030762,373.938599 1330.452148,370.625000 1330.836182,367.679443 
	C1334.242065,373.487885 1337.404907,378.982147 1340.804077,384.326080 
	C1341.545898,385.492371 1343.119263,386.862701 1344.330933,386.883209 
	C1355.769287,387.076935 1367.212280,386.998413 1379.604248,386.998413 
	C1364.088135,360.451050 1348.976807,334.596283 1333.607544,308.300110 
	C1336.759644,306.766052 1339.839233,305.669617 1342.477173,303.910706 
	C1351.725586,297.744110 1359.493530,290.115234 1365.135864,280.394379 
	C1372.523926,267.665802 1374.584229,253.820602 1372.643188,239.608505 
	C1370.524902,224.099854 1362.563599,211.398849 1351.119141,200.694733 
	C1351.571777,198.052582 1351.971680,195.753677 1351.972900,193.454590 
	C1352.006592,129.303070 1352.000000,65.151535 1352.000000,1.000000 
z"/>
<path fill="#BD1F81" opacity="1.000000" stroke="none" 
	d="
M69.531342,1.000000 
	C70.000000,190.687561 70.000000,380.375122 70.000000,570.531372 
	C60.979103,571.000000 51.958210,571.000000 42.281303,570.626648 
	C38.904202,569.870789 36.124275,569.724915 33.472038,569.065491 
	C20.948351,565.951660 11.908660,558.424316 5.987607,547.018250 
	C4.405428,543.970398 2.666816,541.003845 1.000011,538.000000 
	C1.000000,370.312439 1.000000,202.624878 1.349973,34.353836 
	C2.157079,32.764496 2.695500,31.787062 3.058677,30.748354 
	C6.407648,21.170082 12.076480,13.221330 20.872969,8.170000 
	C26.198347,5.111933 32.265896,3.346303 38.000000,1.000000 
	C48.354229,1.000000 58.708454,1.000000 69.531342,1.000000 
z"/>
<path fill="#9C257F" opacity="1.000000" stroke="none" 
	d="
M592.468628,571.000000 
	C592.000061,510.027527 592.000122,449.055084 592.464661,387.554871 
	C617.829346,387.027130 642.729553,387.027130 667.673828,387.027130 
	C667.673828,375.712311 667.673828,365.002258 667.673828,353.832123 
	C652.567200,353.832123 637.783813,353.832123 623.000183,353.373993 
	C622.999939,235.610580 623.000000,118.305290 623.000000,1.000000 
	C642.354248,1.000000 661.708435,1.000000 681.531372,1.468657 
	C682.000000,191.624878 682.000000,381.312439 682.000000,571.000000 
	C652.312439,571.000000 622.624878,571.000000 592.468628,571.000000 
z"/>
<path fill="#6B2D7D" opacity="1.000000" stroke="none" 
	d="
M1610.001221,387.165802 
	C1610.000732,448.131439 1610.000366,509.097046 1610.000000,570.531372 
	C1579.979126,571.000000 1549.958130,571.000000 1519.468628,570.531372 
	C1519.000000,509.097504 1519.000122,448.132355 1519.464111,387.096588 
	C1531.559448,387.026001 1543.190796,387.026001 1555.366699,387.026001 
	C1552.939697,382.136658 1550.948486,378.125397 1548.966431,373.638306 
	C1548.983521,339.010620 1549.009644,304.858704 1548.952148,270.706940 
	C1548.948975,268.790222 1548.256226,266.874725 1547.934326,264.531738 
	C1548.323242,257.702576 1548.951172,251.299805 1548.940430,244.898148 
	C1548.918335,231.715179 1543.951660,220.265411 1536.118652,209.694031 
	C1536.571655,207.052094 1536.971680,204.753204 1536.972900,202.454102 
	C1537.006348,135.302750 1537.000000,68.151375 1537.000000,1.000000 
	C1561.020874,1.000000 1585.041870,1.000000 1609.531372,1.000000 
	C1610.000000,61.972553 1610.000122,122.945107 1609.536865,184.447754 
	C1598.813599,184.977844 1588.553711,184.977844 1578.307617,184.977844 
	C1578.307617,252.643753 1578.307617,319.668121 1578.307617,387.165802 
	C1589.075195,387.165802 1599.538208,387.165802 1610.001221,387.165802 
z"/>
<path fill="#90277F" opacity="1.000000" stroke="none" 
	d="
M905.000000,571.000000 
	C880.312439,571.000000 855.624878,571.000000 830.468628,570.531372 
	C830.000000,505.448212 830.012878,440.833710 829.955994,376.219269 
	C829.953552,373.439087 829.307434,370.659485 829.098572,367.571228 
	C841.297852,358.028717 850.868164,346.517700 857.341919,332.946136 
	C866.376953,314.005341 869.828552,293.979645 867.152161,272.816803 
	C864.804260,254.251770 858.690613,237.495163 847.499268,222.175629 
	C848.132446,218.416458 848.941406,215.148346 848.944763,211.879410 
	C849.017456,141.586334 849.000000,71.293159 849.000000,1.000000 
	C872.687561,1.000000 896.375122,1.000000 920.531372,1.468657 
	C921.000366,62.902840 921.000732,123.868370 920.537109,184.904816 
	C912.812073,184.975739 905.550964,184.975739 898.290161,184.975739 
	C898.290161,252.670731 898.290161,319.702667 898.290161,386.844116 
	C900.715576,386.960632 902.858215,387.063568 905.000427,387.624756 
	C905.000061,449.055298 905.000000,510.027649 905.000000,571.000000 
z"/>
<path fill="#86287F" opacity="1.000000" stroke="none" 
	d="
M1013.000000,1.000000 
	C1038.354248,1.000000 1063.708496,1.000000 1089.531372,1.468657 
	C1090.000366,62.902557 1090.000610,123.867798 1089.539795,184.904205 
	C1084.813232,184.975388 1080.547852,184.975388 1076.304443,184.975388 
	C1076.304443,252.648438 1076.304443,319.663330 1076.304443,387.166931 
	C1081.069946,387.166931 1085.535522,387.166931 1090.000488,387.625122 
	C1089.999878,449.055542 1090.000000,510.027771 1090.000000,571.000000 
	C1072.979126,571.000000 1055.958130,571.000000 1038.468628,570.531372 
	C1037.985352,499.337250 1037.970703,428.611786 1037.984863,357.520782 
	C1047.446289,339.165314 1047.967896,320.881866 1038.833618,302.773499 
	C1034.282471,293.751251 1026.594727,287.272919 1016.724182,281.489655 
	C1018.872559,279.863007 1020.502502,278.718567 1022.034241,277.455200 
	C1039.177124,263.315948 1040.794556,234.615402 1032.073120,216.947876 
	C1027.374023,207.428696 1019.793091,200.728378 1012.120483,193.723907 
	C1012.520813,190.862396 1012.968018,188.393875 1012.969604,185.925079 
	C1013.008301,124.283401 1013.000000,62.641697 1013.000000,1.000000 
z"/>
<path fill="#99257F" opacity="1.000000" stroke="none" 
	d="
M682.468628,571.000000 
	C682.000000,381.312439 682.000000,191.624878 682.000000,1.468657 
	C705.354248,1.000000 728.708435,1.000000 752.531372,1.468657 
	C753.000183,62.902393 753.000427,123.867470 752.536621,184.903229 
	C732.154236,184.973892 712.235840,184.973892 692.313843,184.973892 
	C692.313843,252.642792 692.313843,319.663269 692.313843,387.167450 
	C709.084045,387.167450 725.542175,387.167450 742.000122,387.625610 
	C741.999939,449.055817 742.000000,510.027924 742.000000,571.000000 
	C722.312439,571.000000 702.624878,571.000000 682.468628,571.000000 
z"/>
<path fill="#B52181" opacity="1.000000" stroke="none" 
	d="
M167.468658,571.000000 
	C167.000000,381.312439 167.000000,191.624878 167.000000,1.468657 
	C183.020889,1.000000 199.041794,1.000000 215.531342,1.468657 
	C216.000671,62.902702 216.001343,123.868095 215.537811,184.903442 
	C203.585983,184.973389 192.098328,184.973389 180.296066,184.973389 
	C188.438080,215.213699 196.543930,245.147949 204.546951,275.109650 
	C209.157669,292.371277 213.602142,309.677277 217.803070,327.197693 
	C216.989792,329.957458 216.064880,332.482391 216.062439,335.008270 
	C215.986206,413.672150 216.000000,492.336060 216.000000,571.000000 
	C199.979111,571.000000 183.958206,571.000000 167.468658,571.000000 
z"/>
<path fill="#7D2A7E" opacity="1.000000" stroke="none" 
	d="
M1254.000000,571.000000 
	C1237.645752,571.000000 1221.291504,571.000000 1204.468628,570.531372 
	C1204.000000,380.375122 1204.000000,190.687561 1204.000000,1.000000 
	C1221.354248,1.000000 1238.708496,1.000000 1256.531372,1.468657 
	C1257.000366,62.902878 1257.000610,123.868439 1256.537109,184.905334 
	C1246.480591,184.976654 1236.887817,184.976654 1227.307861,184.976654 
	C1227.307861,252.645569 1227.307861,319.664429 1227.307861,387.166229 
	C1236.408325,387.166229 1245.204590,387.166229 1254.000244,387.624451 
	C1253.999878,449.055145 1254.000000,510.027557 1254.000000,571.000000 
z"/>
<path fill="#702C7E" opacity="1.000000" stroke="none" 
	d="
M1519.000244,387.167175 
	C1519.000122,448.132355 1519.000000,509.097504 1519.000000,570.531372 
	C1489.312378,571.000000 1459.624878,571.000000 1429.468628,571.000000 
	C1429.000000,510.027893 1428.999878,449.055786 1429.448242,387.555115 
	C1432.160034,387.026520 1434.423340,387.026520 1437.176270,387.026520 
	C1437.176270,362.024170 1437.176270,337.633118 1437.176270,313.001251 
	C1449.488647,313.001251 1461.300415,312.947418 1473.110107,313.087921 
	C1474.240723,313.101349 1475.833984,314.047302 1476.408813,315.030304 
	C1486.503052,332.295319 1496.412109,349.668518 1506.497803,366.938538 
	C1510.494141,373.781342 1514.822876,380.430084 1519.000244,387.167175 
z"/>
<path fill="#AC2280" opacity="1.000000" stroke="none" 
	d="
M390.531342,1.000000 
	C391.000000,93.557869 390.989716,186.115753 391.058685,278.673584 
	C391.060455,281.015991 391.934906,283.357788 392.709381,286.271423 
	C388.619141,303.440186 384.221893,320.037415 379.824615,336.634613 
	C376.949310,330.253204 375.092407,323.927582 373.257629,317.595520 
	C367.839386,298.896606 362.393036,280.205750 357.026184,261.492126 
	C350.050140,237.167404 343.066345,212.844238 336.297058,188.461777 
	C335.476227,185.505096 334.103241,184.933823 331.457764,184.958069 
	C324.306335,185.023590 317.153107,184.888367 310.000366,184.374603 
	C310.000092,122.944298 310.000061,61.972149 310.000000,1.000000 
	C336.687561,1.000000 363.375122,1.000000 390.531342,1.000000 
z"/>
<path fill="#802A7E" opacity="1.000000" stroke="none" 
	d="
M1203.531372,1.000000 
	C1204.000000,190.687561 1204.000000,380.375122 1204.000000,570.531372 
	C1190.312378,571.000000 1176.624878,571.000000 1162.468628,570.531372 
	C1162.000122,509.097046 1162.000244,448.131409 1162.464355,387.095215 
	C1174.841431,387.024628 1186.754517,387.024628 1198.674316,387.024628 
	C1198.674316,375.694427 1198.674316,364.985901 1198.674316,353.834229 
	C1186.234131,353.834229 1174.117432,353.834229 1162.000366,353.376038 
	C1162.000366,335.667175 1162.000732,318.416473 1162.464844,301.095184 
	C1171.845825,301.024597 1180.762939,301.024597 1189.732300,301.024597 
	C1189.732300,289.654938 1189.732300,278.915253 1189.732300,268.157776 
	C1187.978271,268.037354 1186.489380,267.935120 1185.000244,267.374786 
	C1185.000122,250.333527 1185.000244,233.750381 1185.458740,217.096436 
	C1189.513672,217.025665 1193.110229,217.025665 1196.669434,217.025665 
	C1196.669434,206.011185 1196.669434,195.638840 1196.669434,184.834198 
	C1184.894043,184.834198 1173.447144,184.834198 1162.000244,184.375946 
	C1162.000000,122.945122 1162.000000,61.972561 1162.000000,1.000000 
	C1175.687622,1.000000 1189.375122,1.000000 1203.531372,1.000000 
z"/>
<path fill="#7A2B7E" opacity="1.000000" stroke="none" 
	d="
M1254.468628,571.000000 
	C1254.000000,510.027557 1253.999878,449.055145 1254.446045,387.553955 
	C1256.821899,387.025208 1258.751465,387.025208 1261.180420,387.025208 
	C1261.180420,362.024506 1261.180420,337.626984 1261.180420,313.000488 
	C1270.508301,313.000488 1279.343262,313.349945 1288.136230,312.891693 
	C1295.385132,312.513916 1300.304932,313.598022 1304.172485,321.239563 
	C1312.161621,337.024994 1321.748413,352.001831 1330.678101,367.311218 
	C1330.452148,370.625000 1330.030762,373.938599 1330.028809,377.252502 
	C1329.989868,441.522552 1330.000000,505.792603 1330.000000,570.531372 
	C1304.979126,571.000000 1279.958130,571.000000 1254.468628,571.000000 
z"/>
<path fill="#AD2280" opacity="1.000000" stroke="none" 
	d="
M383.000580,387.165649 
	C383.000366,448.131317 383.000183,509.097015 383.000000,570.531372 
	C358.645782,571.000000 334.291534,571.000000 309.468658,570.531372 
	C309.000000,475.251678 309.014801,380.440674 308.923157,285.629730 
	C308.920593,282.985687 307.777893,280.342773 307.131531,277.275818 
	C310.800781,264.096893 314.505371,251.341461 318.331604,238.167206 
	C326.634125,266.733307 334.836182,294.744873 342.907379,322.794098 
	C348.698303,342.918915 354.380005,363.076050 359.936066,383.266724 
	C360.749146,386.221436 362.034790,387.162384 365.029724,387.070099 
	C371.013367,386.885742 377.009552,387.110077 383.000580,387.165649 
z"/>
<path fill="#792B7E" opacity="1.000000" stroke="none" 
	d="
M1257.000977,184.834000 
	C1257.000610,123.868439 1257.000366,62.902878 1257.000000,1.468657 
	C1288.354248,1.000000 1319.708496,1.000000 1351.531372,1.000000 
	C1352.000000,65.151535 1352.006592,129.303070 1351.972900,193.454590 
	C1351.971680,195.753677 1351.571777,198.052582 1350.812256,200.561981 
	C1339.643799,190.691223 1326.896729,185.398392 1312.372437,185.083435 
	C1293.922119,184.683350 1275.458740,184.889343 1257.000977,184.834000 
z"/>
<path fill="#8B287F" opacity="1.000000" stroke="none" 
	d="
M1012.531372,1.000000 
	C1013.000000,62.641697 1013.008301,124.283401 1012.969604,185.925079 
	C1012.968018,188.393875 1012.520813,190.862396 1011.756653,193.667999 
	C999.731323,186.997513 987.250610,184.569107 973.833252,184.884567 
	C956.232605,185.298386 938.612732,184.889145 921.001099,184.833893 
	C921.000732,123.868370 921.000366,62.902840 921.000000,1.468657 
	C951.354248,1.000000 981.708435,1.000000 1012.531372,1.000000 
z"/>
<path fill="#95267F" opacity="1.000000" stroke="none" 
	d="
M742.468628,571.000000 
	C742.000000,510.027924 741.999939,449.055817 742.464233,387.555450 
	C750.091431,387.018219 757.274536,387.344421 764.412415,386.917206 
	C773.735168,386.359192 783.073914,385.562286 792.312256,384.222809 
	C805.991638,382.239380 817.789978,375.677124 828.961182,367.879608 
	C829.307434,370.659485 829.953552,373.439087 829.955994,376.219269 
	C830.012878,440.833710 830.000000,505.448212 830.000000,570.531372 
	C800.979126,571.000000 771.958191,571.000000 742.468628,571.000000 
z"/>
<path fill="#9F2480" opacity="1.000000" stroke="none" 
	d="
M622.531372,1.000000 
	C623.000000,118.305290 622.999939,235.610580 622.536133,353.444458 
	C610.484497,353.973022 598.896667,353.973022 586.855103,353.973022 
	C586.855103,297.356171 586.855103,241.340714 586.855103,184.833420 
	C582.263489,184.833420 578.132080,184.833420 574.000610,184.833420 
	C574.000427,123.868050 574.000183,62.902683 574.000000,1.468657 
	C590.020874,1.000000 606.041809,1.000000 622.531372,1.000000 
z"/>
<path fill="#8D277F" opacity="1.000000" stroke="none" 
	d="
M905.468628,571.000000 
	C905.000000,510.027649 905.000061,449.055298 905.464478,387.554688 
	C930.286072,387.073395 954.643311,387.120361 979.000244,387.625458 
	C978.999939,449.055756 979.000000,510.027863 979.000000,571.000000 
	C954.645752,571.000000 930.291565,571.000000 905.468628,571.000000 
z"/>
<path fill="#702C7E" opacity="1.000000" stroke="none" 
	d="
M1429.001343,184.832565 
	C1429.000854,123.867485 1429.000488,62.902397 1429.000000,1.468657 
	C1453.020874,1.000000 1477.041870,1.000000 1501.531372,1.468657 
	C1502.000244,63.569656 1502.000366,125.201996 1501.595459,186.893860 
	C1497.372803,186.302704 1493.561523,185.133499 1489.736816,185.087997 
	C1469.493530,184.847076 1449.246826,184.888809 1429.001343,184.832565 
z"/>
<path fill="#82297E" opacity="1.000000" stroke="none" 
	d="
M1161.531372,1.000000 
	C1162.000000,61.972561 1162.000000,122.945122 1161.536133,184.446747 
	C1137.381958,184.928223 1113.691406,184.880630 1090.000977,184.833038 
	C1090.000610,123.867798 1090.000366,62.902557 1090.000000,1.468657 
	C1113.687622,1.000000 1137.375122,1.000000 1161.531372,1.000000 
z"/>
<path fill="#82297E" opacity="1.000000" stroke="none" 
	d="
M1162.000366,387.165771 
	C1162.000244,448.131409 1162.000122,509.097046 1162.000000,570.531372 
	C1138.312378,571.000000 1114.624878,571.000000 1090.468628,571.000000 
	C1090.000000,510.027771 1089.999878,449.055542 1090.464355,387.554962 
	C1114.619385,387.072998 1138.309937,387.119385 1162.000366,387.165771 
z"/>
<path fill="#B02180" opacity="1.000000" stroke="none" 
	d="
M309.531342,1.000000 
	C310.000061,61.972149 310.000092,122.944298 309.554199,184.444717 
	C306.473999,184.972992 303.839783,184.972992 301.377777,184.972992 
	C298.423676,195.485596 295.653503,205.509720 292.787018,215.506241 
	C288.223450,231.421219 283.610168,247.322021 278.991486,263.221130 
	C272.713806,284.830994 266.411255,306.433685 259.801361,327.804382 
	C258.988922,325.043610 258.063721,322.518127 258.061981,319.992035 
	C257.989746,213.661377 258.000000,107.330688 258.000000,1.000000 
	C275.020905,1.000000 292.041779,1.000000 309.531342,1.000000 
z"/>
<path fill="#89287F" opacity="1.000000" stroke="none" 
	d="
M979.468628,571.000000 
	C979.000000,510.027863 978.999939,449.055756 979.452759,387.555237 
	C983.819275,386.685486 987.727173,386.168488 991.647949,386.036987 
	C1001.728760,385.698944 1011.016479,382.495056 1018.775513,376.441986 
	C1025.749756,371.001160 1031.606445,364.127808 1037.956177,357.886353 
	C1037.970703,428.611786 1037.985352,499.337250 1038.000000,570.531372 
	C1018.645752,571.000000 999.291565,571.000000 979.468628,571.000000 
z"/>
<path fill="#632E7D" opacity="1.000000" stroke="none" 
	d="
M1685.468628,571.000000 
	C1685.000000,510.027679 1684.999878,449.055328 1685.464233,387.553833 
	C1705.619385,387.072235 1725.310181,387.119843 1745.000977,387.167450 
	C1745.000610,448.132538 1745.000366,509.097595 1745.000000,570.531372 
	C1725.312378,571.000000 1705.624878,571.000000 1685.468628,571.000000 
z"/>
<path fill="#95267F" opacity="1.000000" stroke="none" 
	d="
M753.000610,184.832550 
	C753.000427,123.867470 753.000183,62.902393 753.000000,1.468657 
	C772.354248,1.000000 791.708435,1.000000 811.531372,1.468657 
	C811.986816,65.664192 811.973633,129.391068 811.582520,193.058899 
	C797.867126,187.208160 783.955811,184.499207 769.396973,184.962204 
	C763.938416,185.135818 758.466431,184.888153 753.000610,184.832550 
z"/>
<path fill="#5B307D" opacity="1.000000" stroke="none" 
	d="
M1830.999512,190.834076 
	C1830.999634,127.868492 1830.999878,64.902901 1831.000000,1.468657 
	C1850.687622,1.000000 1870.375122,1.000000 1890.531372,1.468657 
	C1891.000366,62.569187 1891.000610,123.201057 1890.596191,183.894058 
	C1883.645142,182.970337 1877.128296,181.508209 1870.546143,181.099030 
	C1856.428467,180.221359 1843.357788,184.233963 1830.999512,190.834076 
z"/>
<path fill="#5A307D" opacity="1.000000" stroke="none" 
	d="
M1912.002808,383.165833 
	C1912.001831,445.464783 1912.000977,507.763733 1912.000000,570.531372 
	C1892.312378,571.000000 1872.624878,571.000000 1852.468628,570.531372 
	C1852.000244,509.430908 1852.000366,448.799164 1852.405762,388.107117 
	C1860.048828,388.975708 1867.312866,390.832611 1874.518799,390.629608 
	C1887.332520,390.268616 1900.111694,388.662354 1912.002808,383.165833 
z"/>
<path fill="#B32180" opacity="1.000000" stroke="none" 
	d="
M257.531342,1.000000 
	C258.000000,107.330688 257.989746,213.661377 258.061981,319.992035 
	C258.063721,322.518127 258.988922,325.043610 259.750763,328.194336 
	C259.414093,331.108459 258.810059,333.397583 257.999146,336.470612 
	C257.091003,334.955505 256.433441,334.254333 256.214996,333.435944 
	C251.115097,314.329010 246.076782,295.205627 240.997742,276.093109 
	C235.335846,254.787292 229.705933,233.472610 223.937912,212.195480 
	C221.453552,203.031174 218.656830,193.951569 216.002014,184.833481 
	C216.001343,123.868095 216.000671,62.902702 216.000000,1.468657 
	C229.687561,1.000000 243.375122,1.000000 257.531342,1.000000 
z"/>
<path fill="#AF2280" opacity="1.000000" stroke="none" 
	d="
M307.166809,277.699310 
	C307.777893,280.342773 308.920593,282.985687 308.923157,285.629730 
	C309.014801,380.440674 309.000000,475.251678 309.000000,570.531372 
	C298.645782,571.000000 288.291534,571.000000 277.468658,570.531372 
	C277.000000,511.442444 277.013275,452.822174 276.952850,394.201996 
	C276.950348,391.786469 276.256470,389.371643 275.933899,386.556427 
	C277.985046,378.972626 279.965546,371.782806 281.993317,364.606384 
	C286.670837,348.052216 291.308167,331.486267 296.083221,314.960205 
	C299.680084,302.511688 303.465393,290.117615 307.166809,277.699310 
z"/>
<path fill="#B12180" opacity="1.000000" stroke="none" 
	d="
M275.884705,386.956512 
	C276.256470,389.371643 276.950348,391.786469 276.952850,394.201996 
	C277.013275,452.822174 277.000000,511.442444 277.000000,570.531372 
	C263.312439,571.000000 249.624878,571.000000 235.468658,570.531372 
	C235.000015,512.051758 234.985367,454.040802 235.042587,396.029907 
	C235.045502,393.075165 235.666855,390.121033 236.464325,387.096863 
	C249.913834,387.003571 262.899261,386.980042 275.884705,386.956512 
z"/>
<path fill="#6D2D7D" opacity="1.000000" stroke="none" 
	d="
M1502.000610,186.834335 
	C1502.000366,125.201996 1502.000244,63.569656 1502.000000,1.468657 
	C1513.354248,1.000000 1524.708496,1.000000 1536.531372,1.000000 
	C1537.000000,68.151375 1537.006348,135.302750 1536.972900,202.454102 
	C1536.971680,204.753204 1536.571655,207.052094 1535.815552,209.541016 
	C1534.646118,208.788147 1534.132202,207.740234 1533.373291,206.918686 
	C1524.668945,197.495422 1514.613403,190.161743 1502.000610,186.834335 
z"/>
<path fill="#5C2F7D" opacity="1.000000" stroke="none" 
	d="
M1852.000488,388.167389 
	C1852.000366,448.799164 1852.000244,509.430908 1852.000000,570.531372 
	C1840.312378,571.000000 1828.624878,571.000000 1816.468628,571.000000 
	C1816.000000,507.784515 1815.989624,444.569031 1816.034546,381.353577 
	C1816.036499,378.555756 1816.543213,375.758240 1817.245972,372.590118 
	C1827.510132,380.996582 1839.379639,385.390442 1852.000488,388.167389 
z"/>
<path fill="#59307D" opacity="1.000000" stroke="none" 
	d="
M1891.000977,183.832932 
	C1891.000610,123.201057 1891.000366,62.569187 1891.000000,1.468657 
	C1902.354248,1.000000 1913.708496,1.000000 1925.531372,1.000000 
	C1926.000000,66.151711 1926.006714,131.303421 1925.973022,196.455109 
	C1925.971802,198.754196 1925.571533,201.053085 1924.812256,203.565033 
	C1914.930054,194.208008 1903.628540,187.914597 1891.000977,183.832932 
z"/>
<path fill="#93267F" opacity="1.000000" stroke="none" 
	d="
M811.960449,193.117950 
	C811.973633,129.391068 811.986816,65.664192 812.000000,1.468657 
	C820.354248,1.000000 828.708496,1.000000 837.531372,1.468657 
	C838.000000,68.884567 838.012451,135.831848 837.955994,202.779053 
	C837.953613,205.559052 837.306396,208.338501 836.651367,210.978088 
	C828.215515,204.931290 820.088013,199.024612 811.960449,193.117950 
z"/>
<path fill="#B32180" opacity="1.000000" stroke="none" 
	d="
M236.000259,387.166595 
	C235.666855,390.121033 235.045502,393.075165 235.042587,396.029907 
	C234.985367,454.040802 235.000015,512.051758 235.000000,570.531372 
	C228.978851,571.000000 222.957703,571.000000 216.468277,571.000000 
	C216.000000,492.336060 215.986206,413.672150 216.062439,335.008270 
	C216.064880,332.482391 216.989792,329.957458 218.131927,327.406281 
	C218.863525,328.201294 218.840958,329.050171 219.047943,329.838776 
	C223.723785,347.654022 228.384644,365.473480 233.195938,383.252228 
	C233.588730,384.703705 235.040543,385.868561 236.000259,387.166595 
z"/>
<path fill="#92277F" opacity="1.000000" stroke="none" 
	d="
M836.959656,211.118210 
	C837.306396,208.338501 837.953613,205.559052 837.955994,202.779053 
	C838.012451,135.831848 838.000000,68.884567 838.000000,1.468657 
	C841.361267,1.000000 844.722595,1.000000 848.541931,1.000000 
	C849.000000,71.293159 849.017456,141.586334 848.944763,211.879410 
	C848.941406,215.148346 848.132446,218.416458 847.350891,221.818069 
	C843.655273,218.340195 840.307495,214.729202 836.959656,211.118210 
z"/>
<path fill="#FFFFFF" opacity="1.000000" stroke="none" 
	d="
M2083.468750,571.000000 
	C2086.827881,570.055664 2090.698975,569.256836 2094.476318,568.141724 
	C2110.585938,563.385864 2119.170654,551.584167 2123.792725,536.278259 
	C2124.443848,534.122070 2124.114746,531.669861 2124.619629,529.177368 
	C2125.000000,542.926636 2125.000000,556.853333 2125.000000,571.000000 
	C2111.313232,571.000000 2097.625488,571.000000 2083.468750,571.000000 
z"/>
<path fill="#FFFFFF" opacity="1.000000" stroke="none" 
	d="
M2125.000000,41.531349 
	C2123.301514,36.209465 2122.502686,29.940296 2119.727051,24.722965 
	C2112.882080,11.857160 2102.257568,3.563088 2087.158936,1.368684 
	C2099.596191,1.000000 2112.192139,1.000000 2125.000000,1.000000 
	C2125.000000,14.353483 2125.000000,27.708082 2125.000000,41.531349 
z"/>
<path fill="#FFFFFF" opacity="1.000000" stroke="none" 
	d="
M1.000011,538.468628 
	C2.666816,541.003845 4.405428,543.970398 5.987607,547.018250 
	C11.908660,558.424316 20.948351,565.951660 33.472038,569.065491 
	C36.124275,569.724915 38.904202,569.870789 41.812645,570.626648 
	C28.414648,571.000000 14.829298,571.000000 1.000000,571.000000 
	C1.000000,560.313660 1.000000,549.625488 1.000011,538.468628 
z"/>
<path fill="#FFFFFF" opacity="1.000000" stroke="none" 
	d="
M37.531342,1.000000 
	C32.265896,3.346303 26.198347,5.111933 20.872969,8.170000 
	C12.076480,13.221330 6.407648,21.170082 3.058677,30.748354 
	C2.695500,31.787062 2.157079,32.764496 1.349973,33.885178 
	C1.000000,23.069216 1.000000,12.138432 1.000000,1.000000 
	C13.020098,1.000000 25.041391,1.000000 37.531342,1.000000 
z"/>
<path fill="#FEFEFE" opacity="1.000000" stroke="none" 
	d="
M236.464325,387.096863 
	C235.040543,385.868561 233.588730,384.703705 233.195938,383.252228 
	C228.384644,365.473480 223.723785,347.654022 219.047943,329.838776 
	C218.840958,329.050171 218.863525,328.201294 218.450302,327.171906 
	C213.602142,309.677277 209.157669,292.371277 204.546951,275.109650 
	C196.543930,245.147949 188.438080,215.213699 180.296066,184.973389 
	C192.098328,184.973389 203.585983,184.973389 215.537811,184.903442 
	C218.656830,193.951569 221.453552,203.031174 223.937912,212.195480 
	C229.705933,233.472610 235.335846,254.787292 240.997742,276.093109 
	C246.076782,295.205627 251.115097,314.329010 256.214996,333.435944 
	C256.433441,334.254333 257.091003,334.955505 257.999146,336.470612 
	C258.810059,333.397583 259.414093,331.108459 260.068726,328.429382 
	C266.411255,306.433685 272.713806,284.830994 278.991486,263.221130 
	C283.610168,247.322021 288.223450,231.421219 292.787018,215.506241 
	C295.653503,205.509720 298.423676,195.485596 301.377777,184.972992 
	C303.839783,184.972992 306.473999,184.972992 309.554413,184.902893 
	C317.153107,184.888367 324.306335,185.023590 331.457764,184.958069 
	C334.103241,184.933823 335.476227,185.505096 336.297058,188.461777 
	C343.066345,212.844238 350.050140,237.167404 357.026184,261.492126 
	C362.393036,280.205750 367.839386,298.896606 373.257629,317.595520 
	C375.092407,323.927582 376.949310,330.253204 379.824615,336.634613 
	C384.221893,320.037415 388.619141,303.440186 393.066895,286.440857 
	C398.076172,267.753510 403.046417,249.471344 407.990173,231.182022 
	C412.105682,215.956711 416.190033,200.722992 420.357025,185.237106 
	C432.174896,185.237106 444.134338,185.237106 456.640259,185.237106 
	C438.633179,252.457352 420.638092,319.632965 402.584625,387.026489 
	C396.234802,387.026489 390.081573,387.026489 383.464478,387.096069 
	C377.009552,387.110077 371.013367,386.885742 365.029724,387.070099 
	C362.034790,387.162384 360.749146,386.221436 359.936066,383.266724 
	C354.380005,363.076050 348.698303,342.918915 342.907379,322.794098 
	C334.836182,294.744873 326.634125,266.733307 318.331604,238.167206 
	C314.505371,251.341461 310.800781,264.096893 307.131531,277.275818 
	C303.465393,290.117615 299.680084,302.511688 296.083221,314.960205 
	C291.308167,331.486267 286.670837,348.052216 281.993317,364.606384 
	C279.965546,371.782806 277.985046,378.972626 275.933899,386.556427 
	C262.899261,386.980042 249.913834,387.003571 236.464325,387.096863 
z"/>
<path fill="#FEFEFE" opacity="1.000000" stroke="none" 
	d="
M484.562134,184.904663 
	C494.794586,184.834137 504.588409,184.834137 514.689819,184.834137 
	C514.689819,252.338272 514.689819,319.349915 514.689819,387.026764 
	C505.110565,387.026764 495.519714,387.026764 485.464783,387.096313 
	C483.511505,387.061249 482.022308,386.956573 480.269043,386.833374 
	C480.269043,319.710693 480.269043,252.625977 480.269043,184.975189 
	C481.595886,184.975189 482.859680,184.975189 484.562134,184.904663 
z"/>
<path fill="#FEFEFE" opacity="1.000000" stroke="none" 
	d="
M1890.596191,183.894058 
	C1903.628540,187.914597 1914.930054,194.208008 1924.573364,203.908203 
	C1929.735962,210.878510 1934.592285,217.718613 1940.134766,225.525024 
	C1930.415283,231.016113 1921.350098,236.137619 1911.753418,241.612350 
	C1910.356323,240.700928 1909.347046,239.510452 1908.649048,238.159210 
	C1904.962158,231.022675 1899.931519,224.925049 1893.121704,220.788879 
	C1884.548218,215.581421 1875.145508,213.028839 1864.524170,214.934204 
	C1856.255737,214.760254 1849.633911,217.626740 1843.645996,223.044907 
	C1843.211670,224.094711 1843.084839,224.990097 1842.614136,225.940704 
	C1841.808594,226.649902 1841.346802,227.303879 1840.556641,228.143402 
	C1839.487427,233.241165 1838.237549,238.152451 1838.228882,243.065933 
	C1838.224731,245.390625 1840.595459,247.719528 1842.020508,250.351120 
	C1842.489380,251.437073 1842.828125,252.218430 1843.197876,253.344147 
	C1850.486206,257.403473 1857.743652,261.118439 1865.340942,265.000854 
	C1866.822754,265.767944 1867.911865,266.514740 1869.114380,266.944885 
	C1883.067261,271.935577 1897.037109,276.878479 1911.002563,281.834076 
	C1917.585083,286.306458 1925.164185,289.824829 1930.545654,295.446777 
	C1942.302734,307.729126 1946.869019,322.564728 1944.319580,339.982910 
	C1942.604858,351.699036 1938.048584,361.639618 1930.267822,369.854736 
	C1925.326416,375.072113 1918.583374,378.583160 1912.325439,383.012573 
	C1900.111694,388.662354 1887.332520,390.268616 1874.518799,390.629608 
	C1867.312866,390.832611 1860.048828,388.975708 1852.405762,388.107117 
	C1839.379639,385.390442 1827.510132,380.996582 1817.338379,372.193054 
	C1806.718872,363.705048 1799.910278,352.870392 1795.321777,340.276611 
	C1804.875122,334.639648 1814.501099,328.959747 1824.079834,323.307739 
	C1826.557617,327.937378 1828.933716,332.376923 1831.657959,337.312622 
	C1837.314209,345.459595 1844.493896,350.760681 1853.160156,353.877838 
	C1856.625122,355.124146 1860.436523,355.453094 1864.113892,356.054840 
	C1877.715332,358.280457 1890.669189,357.350952 1902.545898,349.211060 
	C1911.584595,343.016357 1915.056641,323.497772 1904.010498,315.723663 
	C1897.860229,311.395172 1890.958496,307.848511 1883.947510,305.086670 
	C1867.400635,298.568298 1850.585571,292.730835 1833.878906,286.617981 
	C1823.782959,281.018951 1814.284424,274.688385 1809.013550,263.893951 
	C1798.869019,243.118301 1802.566406,210.154465 1825.034424,195.414505 
	C1826.931519,194.169937 1828.596069,192.570663 1830.684082,190.985107 
	C1843.357788,184.233963 1856.428467,180.221359 1870.546143,181.099030 
	C1877.128296,181.508209 1883.645142,182.970337 1890.596191,183.894058 
z"/>
<path fill="#5A307D" opacity="1.000000" stroke="none" 
	d="
M1864.957642,214.885300 
	C1875.145508,213.028839 1884.548218,215.581421 1893.121704,220.788879 
	C1899.931519,224.925049 1904.962158,231.022675 1908.649048,238.159210 
	C1909.347046,239.510452 1910.356323,240.700928 1911.589600,241.924988 
	C1911.970825,252.979385 1912.023926,264.074554 1911.961426,275.169098 
	C1911.950317,277.127441 1911.456665,279.083038 1911.094238,281.437012 
	C1897.037109,276.878479 1883.067261,271.935577 1869.114380,266.944885 
	C1867.911865,266.514740 1866.822754,265.767944 1865.340454,264.542786 
	C1864.985840,247.573273 1864.971802,231.229294 1864.957642,214.885300 
z"/>
<path fill="#FEFEFE" opacity="1.000000" stroke="none" 
	d="
M1745.464722,387.096252 
	C1725.310181,387.119843 1705.619385,387.072235 1685.464844,387.095612 
	C1673.537354,387.166595 1662.073608,387.166595 1650.306641,387.166595 
	C1650.306641,319.663910 1650.306641,252.633972 1650.306641,184.978851 
	C1672.232422,184.978851 1694.153320,184.978851 1716.538086,184.906464 
	C1735.115601,184.834061 1753.229126,184.834061 1771.670898,184.834061 
	C1771.670898,195.630386 1771.670898,206.011475 1771.670898,217.024551 
	C1768.117310,217.024551 1764.517700,217.024551 1759.996216,217.023727 
	C1753.049805,217.070877 1747.025146,217.118835 1740.576172,217.095352 
	C1738.434326,217.071457 1736.716797,217.118988 1734.536499,217.095078 
	C1728.715820,217.071152 1723.357910,217.118668 1717.536133,217.094574 
	C1706.152832,217.022980 1695.233154,217.022980 1684.317627,217.022980 
	C1684.317627,234.304947 1684.317627,251.011703 1684.317627,267.833832 
	C1695.755737,267.833832 1706.877808,267.833832 1718.462769,267.905151 
	C1724.283447,267.928802 1729.641357,267.881134 1735.384033,267.904846 
	C1737.496216,267.686615 1739.223633,267.397064 1741.194092,267.467010 
	C1747.625122,267.828766 1753.813110,267.831024 1760.001221,267.833252 
	C1761.492554,267.933990 1762.983887,268.034729 1764.736938,268.153137 
	C1764.736938,278.913452 1764.736938,289.666748 1764.736938,301.025208 
	C1762.421875,301.025208 1760.159424,301.025208 1756.985229,301.024231 
	C1732.159302,301.023254 1708.245117,301.023254 1684.323486,301.023254 
	C1684.323486,318.967987 1684.323486,336.348328 1684.323486,353.832642 
	C1708.763916,353.832642 1732.882568,353.832642 1757.001221,353.832642 
	C1762.128418,353.832642 1767.255615,353.832642 1772.689941,353.832642 
	C1772.689941,364.994751 1772.689941,375.703583 1772.689941,387.025085 
	C1763.763184,387.025085 1754.845825,387.025085 1745.464722,387.096252 
z"/>
<path fill="#5B307D" opacity="1.000000" stroke="none" 
	d="
M1833.537598,286.927429 
	C1850.585571,292.730835 1867.400635,298.568298 1883.947510,305.086670 
	C1890.958496,307.848511 1897.860229,311.395172 1904.010498,315.723663 
	C1915.056641,323.497772 1911.584595,343.016357 1902.545898,349.211060 
	C1890.669189,357.350952 1877.715332,358.280457 1864.113892,356.054840 
	C1860.436523,355.453094 1856.625122,355.124146 1853.160156,353.877838 
	C1844.493896,350.760681 1837.314209,345.459595 1831.981323,337.461884 
	C1831.971191,322.546936 1831.939087,307.978516 1832.053223,293.411224 
	C1832.069336,291.350220 1832.797607,289.294800 1833.537598,286.927429 
z"/>
<path fill="#622E7D" opacity="1.000000" stroke="none" 
	d="
M1757.000610,353.374542 
	C1732.882568,353.832642 1708.763916,353.832642 1684.323486,353.832642 
	C1684.323486,336.348328 1684.323486,318.967987 1684.323486,301.023254 
	C1708.245117,301.023254 1732.159302,301.023254 1756.537354,301.095306 
	C1757.000732,318.417053 1757.000366,335.666748 1757.000610,353.374542 
z"/>
<path fill="#622F7D" opacity="1.000000" stroke="none" 
	d="
M1741.000488,217.166794 
	C1747.025146,217.118835 1753.049805,217.070877 1759.537842,217.094833 
	C1760.000854,233.750229 1760.000488,250.333710 1760.000610,267.375214 
	C1753.813110,267.831024 1747.625122,267.828766 1741.354492,267.083588 
	C1741.484253,265.541473 1741.878296,264.743134 1741.881958,263.942993 
	C1741.938965,251.376770 1742.007324,238.809921 1741.919556,226.244263 
	C1741.898438,223.216446 1741.321655,220.192520 1741.000488,217.166794 
z"/>
<path fill="#FEFEFE" opacity="1.000000" stroke="none" 
	d="
M573.536621,184.903809 
	C578.132080,184.833420 582.263489,184.833420 586.855103,184.833420 
	C586.855103,241.340714 586.855103,297.356171 586.855103,353.973022 
	C598.896667,353.973022 610.484497,353.973022 622.536377,353.902588 
	C637.783813,353.832123 652.567200,353.832123 667.673828,353.832123 
	C667.673828,365.002258 667.673828,375.712311 667.673828,387.027130 
	C642.729553,387.027130 617.829346,387.027130 592.465088,387.096619 
	C579.209351,387.166138 566.417725,387.166138 553.314575,387.166138 
	C553.314575,319.667450 553.314575,252.656265 553.314575,184.974197 
	C559.884766,184.974197 566.478760,184.974197 573.536621,184.903809 
z"/>
<path fill="#FEFEFE" opacity="1.000000" stroke="none" 
	d="
M1610.429199,387.073120 
	C1599.538208,387.165802 1589.075195,387.165802 1578.307617,387.165802 
	C1578.307617,319.668121 1578.307617,252.643753 1578.307617,184.977844 
	C1588.553711,184.977844 1598.813599,184.977844 1609.537354,184.906006 
	C1610.667725,186.222183 1611.889526,187.601349 1611.911743,188.999588 
	C1612.075684,199.310425 1612.000366,209.625092 1612.000366,219.938538 
	C1612.000366,273.834656 1612.011353,327.730774 1611.952271,381.626831 
	C1611.950317,383.411774 1611.238281,385.195953 1610.429199,387.073120 
z"/>
<path fill="#FEFEFE" opacity="1.000000" stroke="none" 
	d="
M1501.595459,186.893860 
	C1514.613403,190.161743 1524.668945,197.495422 1533.373291,206.918686 
	C1534.132202,207.740234 1534.646118,208.788147 1535.576660,209.883972 
	C1543.951660,220.265411 1548.918335,231.715179 1548.940430,244.898148 
	C1548.951172,251.299805 1548.323242,257.702576 1547.606812,264.723389 
	C1545.253662,274.400696 1541.130981,282.529694 1534.990234,289.289886 
	C1529.814697,294.987518 1523.628784,299.767426 1517.519897,304.983124 
	C1514.805420,305.981079 1512.461182,306.949432 1509.552124,308.151062 
	C1512.540649,312.772400 1515.216675,316.910461 1517.945068,321.412537 
	C1524.639771,333.325348 1531.212280,344.915161 1537.952881,356.406250 
	C1541.468018,362.398621 1545.279663,368.217102 1548.957275,374.114136 
	C1550.948486,378.125397 1552.939697,382.136658 1555.366699,387.026001 
	C1543.190796,387.026001 1531.559448,387.026001 1519.464111,387.096588 
	C1514.822876,380.430084 1510.494141,373.781342 1506.497803,366.938538 
	C1496.412109,349.668518 1486.503052,332.295319 1476.408813,315.030304 
	C1475.833984,314.047302 1474.240723,313.101349 1473.110107,313.087921 
	C1461.300415,312.947418 1449.488647,313.001251 1437.176270,313.001251 
	C1437.176270,337.633118 1437.176270,362.024170 1437.176270,387.026520 
	C1434.423340,387.026520 1432.160034,387.026520 1429.448975,387.096924 
	C1420.537598,387.167328 1412.074097,387.167328 1403.307007,387.167328 
	C1403.307007,319.666077 1403.307007,252.645691 1403.307007,184.976166 
	C1411.551636,184.976166 1419.812500,184.976166 1428.537354,184.904358 
	C1449.246826,184.888809 1469.493530,184.847076 1489.736816,185.087997 
	C1493.561523,185.133499 1497.372803,186.302704 1501.595459,186.893860 
M1511.771240,262.658173 
	C1516.670898,253.633759 1516.537598,244.732361 1511.039185,235.541229 
	C1511.039185,235.541229 1511.043213,235.114838 1511.542847,234.920975 
	C1511.376221,234.575546 1511.209595,234.230133 1510.992432,233.178482 
	C1508.364136,230.102737 1505.735840,227.026978 1502.809204,223.307266 
	C1495.755859,217.837555 1487.760254,216.020660 1478.072876,217.023682 
	C1464.488525,217.023682 1450.904297,217.023682 1437.001221,217.023682 
	C1437.001221,228.388794 1437.001099,239.179428 1437.001099,249.970062 
	C1437.001099,260.887360 1437.001221,271.804626 1437.001221,282.833221 
	C1451.425659,282.833221 1465.213135,282.833221 1479.901855,282.974579 
	C1488.438477,283.343231 1496.417358,281.843536 1503.728271,275.777802 
	C1506.166626,272.223541 1508.604858,268.669281 1511.542969,264.920990 
	C1511.376221,264.575623 1511.209595,264.230255 1511.039185,263.458557 
	C1511.039185,263.458557 1511.118774,263.039703 1511.771240,262.658173 
z"/>
<path fill="#FEFEFE" opacity="1.000000" stroke="none" 
	d="
M1256.537109,184.905334 
	C1275.458740,184.889343 1293.922119,184.683350 1312.372437,185.083435 
	C1326.896729,185.398392 1339.643799,190.691223 1350.573608,200.905121 
	C1362.563599,211.398849 1370.524902,224.099854 1372.643188,239.608505 
	C1374.584229,253.820602 1372.523926,267.665802 1365.135864,280.394379 
	C1359.493530,290.115234 1351.725586,297.744110 1342.477173,303.910706 
	C1339.839233,305.669617 1336.759644,306.766052 1333.607544,308.300110 
	C1348.976807,334.596283 1364.088135,360.451050 1379.604248,386.998413 
	C1367.212280,386.998413 1355.769287,387.076935 1344.330933,386.883209 
	C1343.119263,386.862701 1341.545898,385.492371 1340.804077,384.326080 
	C1337.404907,378.982147 1334.242065,373.487885 1330.836182,367.679443 
	C1321.748413,352.001831 1312.161621,337.024994 1304.172485,321.239563 
	C1300.304932,313.598022 1295.385132,312.513916 1288.136230,312.891693 
	C1279.343262,313.349945 1270.508301,313.000488 1261.180420,313.000488 
	C1261.180420,337.626984 1261.180420,362.024506 1261.180420,387.025208 
	C1258.751465,387.025208 1256.821899,387.025208 1254.446533,387.095703 
	C1245.204590,387.166229 1236.408325,387.166229 1227.307861,387.166229 
	C1227.307861,319.664429 1227.307861,252.645569 1227.307861,184.976654 
	C1236.887817,184.976654 1246.480591,184.976654 1256.537109,184.905334 
M1316.854492,281.636810 
	C1320.766235,279.392975 1325.358032,277.837891 1328.461060,274.774811 
	C1337.409424,265.941742 1340.446777,255.126541 1338.104370,242.526688 
	C1335.849365,230.396790 1324.499634,217.809372 1312.274902,217.220963 
	C1295.376953,216.407578 1278.410767,217.016846 1261.254028,217.016846 
	C1261.254028,239.161789 1261.254028,260.868713 1261.254028,283.497833 
	C1279.706543,282.976105 1297.888794,282.462006 1316.854492,281.636810 
z"/>
<path fill="#6D2D7D" opacity="1.000000" stroke="none" 
	d="
M1548.966309,373.638336 
	C1545.279663,368.217102 1541.468018,362.398621 1537.952881,356.406250 
	C1531.212280,344.915161 1524.639771,333.325348 1518.180908,321.068237 
	C1518.206177,315.224487 1518.048218,310.089020 1517.890137,304.953552 
	C1523.628784,299.767426 1529.814697,294.987518 1534.990234,289.289886 
	C1541.130981,282.529694 1545.253662,274.400696 1547.556885,265.150330 
	C1548.256226,266.874725 1548.948975,268.790222 1548.952148,270.706940 
	C1549.009644,304.858704 1548.983521,339.010620 1548.966309,373.638336 
z"/>
<path fill="#FEFEFE" opacity="1.000000" stroke="none" 
	d="
M1037.984863,357.520752 
	C1031.606445,364.127808 1025.749756,371.001160 1018.775513,376.441986 
	C1011.016479,382.495056 1001.728760,385.698944 991.647949,386.036987 
	C987.727173,386.168488 983.819275,386.685486 979.453003,387.097076 
	C954.643311,387.120361 930.286072,387.073395 905.464844,387.096497 
	C902.858215,387.063568 900.715576,386.960632 898.290161,386.844116 
	C898.290161,319.702667 898.290161,252.670731 898.290161,184.975739 
	C905.550964,184.975739 912.812073,184.975739 920.537109,184.904816 
	C938.612732,184.889145 956.232605,185.298386 973.833252,184.884567 
	C987.250610,184.569107 999.731323,186.997513 1011.595947,194.060883 
	C1019.793091,200.728378 1027.374023,207.428696 1032.073120,216.947876 
	C1040.794556,234.615402 1039.177124,263.315948 1022.034241,277.455200 
	C1020.502502,278.718567 1018.872559,279.863007 1016.724182,281.489655 
	C1026.594727,287.272919 1034.282471,293.751251 1038.833618,302.773499 
	C1047.967896,320.881866 1047.446289,339.165314 1037.984863,357.520752 
M1000.188538,255.268250 
	C1004.527283,246.815323 1004.252686,238.377151 1000.003235,229.279221 
	C999.370667,228.835861 998.738098,228.392502 997.797546,227.288193 
	C996.927490,226.067413 996.213989,224.687180 995.160889,223.652710 
	C989.838074,218.424118 983.415100,216.291458 975.072021,217.025787 
	C960.825256,217.025787 946.578491,217.025787 932.325256,217.025787 
	C932.325256,234.639908 932.325256,251.676575 932.325256,268.832825 
	C947.099670,268.832825 961.549805,268.832825 976.835571,268.973236 
	C979.404419,268.640259 982.070251,268.634491 984.522583,267.908234 
	C990.156555,266.239838 995.563293,264.052002 998.675842,257.822021 
	C999.038269,257.175873 999.400696,256.529755 1000.188538,255.268250 
M946.505676,355.000183 
	C958.996460,355.000214 971.489807,355.154053 983.976990,354.941864 
	C991.339783,354.816772 998.086731,352.585693 1003.381592,347.108459 
	C1008.358032,341.960541 1010.494080,335.781311 1011.106567,328.618683 
	C1012.440247,313.020874 999.530762,298.382629 982.694946,299.864075 
	C973.935974,300.634827 965.053345,300.000580 956.226562,300.000763 
	C948.286255,300.000946 940.345886,300.000793 932.303833,300.000793 
	C932.303833,318.575928 932.303833,336.621918 932.303833,355.000183 
	C936.903442,355.000183 941.206421,355.000183 946.505676,355.000183 
z"/>
<path fill="#FEFEFE" opacity="1.000000" stroke="none" 
	d="
M836.651367,210.978088 
	C840.307495,214.729202 843.655273,218.340195 847.151489,222.308746 
	C858.690613,237.495163 864.804260,254.251770 867.152161,272.816803 
	C869.828552,293.979645 866.376953,314.005341 857.341919,332.946136 
	C850.868164,346.517700 841.297852,358.028717 829.098572,367.571228 
	C817.789978,375.677124 805.991638,382.239380 792.312256,384.222809 
	C783.073914,385.562286 773.735168,386.359192 764.412415,386.917206 
	C757.274536,387.344421 750.091431,387.018219 742.464417,387.097290 
	C725.542175,387.167450 709.084045,387.167450 692.313843,387.167450 
	C692.313843,319.663269 692.313843,252.642792 692.313843,184.973892 
	C712.235840,184.973892 732.154236,184.973892 752.536621,184.903229 
	C758.466431,184.888153 763.938416,185.135818 769.396973,184.962204 
	C783.955811,184.499207 797.867126,187.208160 811.582520,193.058899 
	C820.088013,199.024612 828.215515,204.931290 836.651367,210.978088 
M803.557312,346.080322 
	C814.257446,340.184204 821.729553,331.241058 827.077515,320.500305 
	C837.517029,299.533966 837.918457,277.758209 829.468018,256.384430 
	C822.527954,238.830658 809.864197,225.999725 791.086487,220.670105 
	C785.646423,219.126068 779.858215,218.237076 774.206970,218.117523 
	C758.282715,217.780670 742.346619,217.999863 726.272644,217.999863 
	C726.272644,263.550079 726.272644,308.575012 726.272644,353.999664 
	C740.990723,353.999664 755.445679,353.749786 769.887512,354.078094 
	C781.627686,354.344971 792.616150,352.041229 803.557312,346.080322 
z"/>
<path fill="#FEFEFE" opacity="1.000000" stroke="none" 
	d="
M1162.464355,387.095215 
	C1138.309937,387.119385 1114.619385,387.072998 1090.464966,387.096771 
	C1085.535522,387.166931 1081.069946,387.166931 1076.304443,387.166931 
	C1076.304443,319.663330 1076.304443,252.648438 1076.304443,184.975388 
	C1080.547852,184.975388 1084.813232,184.975388 1089.539795,184.904205 
	C1113.691406,184.880630 1137.381958,184.928223 1161.536377,184.904999 
	C1173.447144,184.834198 1184.894043,184.834198 1196.669434,184.834198 
	C1196.669434,195.638840 1196.669434,206.011185 1196.669434,217.025665 
	C1193.110229,217.025665 1189.513672,217.025665 1184.994873,217.025604 
	C1176.381958,217.072327 1168.691284,217.119110 1160.536621,217.095062 
	C1143.493408,217.024261 1126.914185,217.024261 1110.326660,217.024261 
	C1110.326660,234.305283 1110.326660,251.011337 1110.326660,267.834106 
	C1127.434448,267.834106 1144.217529,267.834106 1161.464478,267.904724 
	C1169.619019,267.927856 1177.309692,267.880371 1185.000366,267.832886 
	C1186.489380,267.935120 1187.978271,268.037354 1189.732300,268.157776 
	C1189.732300,278.915253 1189.732300,289.654938 1189.732300,301.024597 
	C1180.762939,301.024597 1171.845825,301.024597 1162.000854,301.024384 
	C1144.160156,301.024170 1127.247437,301.024170 1110.326416,301.024170 
	C1110.326416,318.971954 1110.326416,336.344574 1110.326416,353.834229 
	C1127.767578,353.834229 1144.884155,353.834229 1162.000732,353.834229 
	C1174.117432,353.834229 1186.234131,353.834229 1198.674316,353.834229 
	C1198.674316,364.985901 1198.674316,375.694427 1198.674316,387.024628 
	C1186.754517,387.024628 1174.841431,387.024628 1162.464355,387.095215 
z"/>
<path fill="#82297E" opacity="1.000000" stroke="none" 
	d="
M1162.000366,353.376038 
	C1144.884155,353.834229 1127.767578,353.834229 1110.326416,353.834229 
	C1110.326416,336.344574 1110.326416,318.971954 1110.326416,301.024170 
	C1127.247437,301.024170 1144.160156,301.024170 1161.536865,301.094971 
	C1162.000732,318.416473 1162.000366,335.667175 1162.000366,353.376038 
z"/>
<path fill="#802A7E" opacity="1.000000" stroke="none" 
	d="
M1185.000244,267.374786 
	C1177.309692,267.880371 1169.619019,267.927856 1161.464111,267.446655 
	C1161.000244,250.333939 1161.000488,233.749908 1161.000610,217.165878 
	C1168.691284,217.119110 1176.381958,217.072327 1184.536621,217.096390 
	C1185.000244,233.750381 1185.000122,250.333527 1185.000244,267.374786 
z"/>
<path fill="#5C307D" opacity="1.000000" stroke="none" 
	d="
M1864.524170,214.934204 
	C1864.971802,231.229294 1864.985840,247.573273 1865.000488,264.375336 
	C1857.743652,261.118439 1850.486206,257.403473 1843.528564,253.155304 
	C1843.870117,242.711548 1843.911743,232.801025 1843.953491,222.890488 
	C1849.633911,217.626740 1856.255737,214.760254 1864.524170,214.934204 
z"/>
<path fill="#5C2F7D" opacity="1.000000" stroke="none" 
	d="
M1841.890137,250.046524 
	C1840.595459,247.719528 1838.224731,245.390625 1838.228882,243.065933 
	C1838.237549,238.152451 1839.487427,233.241165 1840.908936,228.154068 
	C1842.059937,227.986099 1842.530029,227.993057 1843.000000,228.468582 
	C1842.630127,235.973618 1842.260132,243.010071 1841.890137,250.046524 
z"/>
<path fill="#5C307D" opacity="1.000000" stroke="none" 
	d="
M1842.020508,250.351120 
	C1842.260132,243.010071 1842.630127,235.973618 1842.996338,228.116089 
	C1842.981079,226.825180 1842.969482,226.355331 1842.958008,225.885483 
	C1843.084839,224.990097 1843.211670,224.094711 1843.645996,223.044907 
	C1843.911743,232.801025 1843.870117,242.711548 1843.497559,252.810944 
	C1842.828125,252.218430 1842.489380,251.437073 1842.020508,250.351120 
z"/>
<path fill="#5C2F7D" opacity="1.000000" stroke="none" 
	d="
M1842.614014,225.940704 
	C1842.969482,226.355331 1842.981079,226.825180 1842.996338,227.647522 
	C1842.530029,227.993057 1842.059937,227.986099 1841.237549,227.968506 
	C1841.346802,227.303879 1841.808594,226.649902 1842.614014,225.940704 
z"/>
<path fill="#632E7D" opacity="1.000000" stroke="none" 
	d="
M1718.000000,267.833832 
	C1706.877808,267.833832 1695.755737,267.833832 1684.317627,267.833832 
	C1684.317627,251.011703 1684.317627,234.304947 1684.317627,217.022980 
	C1695.233154,217.022980 1706.152832,217.022980 1717.536133,217.552658 
	C1718.000000,234.666168 1718.000000,251.250000 1718.000000,267.833832 
z"/>
<path fill="#622F7D" opacity="1.000000" stroke="none" 
	d="
M1718.462769,267.905151 
	C1718.000000,251.250000 1718.000000,234.666168 1718.000000,217.624268 
	C1723.357910,217.118668 1728.715820,217.071152 1734.536865,217.553131 
	C1734.999756,234.666260 1734.999512,251.249878 1734.999268,267.833496 
	C1729.641357,267.881134 1724.283447,267.928802 1718.462769,267.905151 
z"/>
<path fill="#622F7D" opacity="1.000000" stroke="none" 
	d="
M1735.384033,267.904846 
	C1734.999512,251.249878 1734.999756,234.666260 1734.999634,217.624573 
	C1736.716797,217.118988 1738.434326,217.071457 1740.576172,217.095352 
	C1741.321655,220.192520 1741.898438,223.216446 1741.919556,226.244263 
	C1742.007324,238.809921 1741.938965,251.376770 1741.881958,263.942993 
	C1741.878296,264.743134 1741.484253,265.541473 1741.111450,266.724091 
	C1739.223633,267.397064 1737.496216,267.686615 1735.384033,267.904846 
z"/>
<path fill="#702C7E" opacity="1.000000" stroke="none" 
	d="
M1479.000610,282.833221 
	C1465.213135,282.833221 1451.425659,282.833221 1437.001221,282.833221 
	C1437.001221,271.804626 1437.001099,260.887360 1437.001099,249.970062 
	C1437.001099,239.179428 1437.001221,228.388794 1437.001221,217.023682 
	C1450.904297,217.023682 1464.488525,217.023682 1478.536377,217.553268 
	C1479.000244,239.666306 1479.000366,261.249756 1479.000610,282.833221 
z"/>
<path fill="#6F2C7D" opacity="1.000000" stroke="none" 
	d="
M1479.451172,282.903900 
	C1479.000366,261.249756 1479.000244,239.666306 1479.000244,217.624817 
	C1487.760254,216.020660 1495.755859,217.837555 1502.722046,223.974686 
	C1502.435059,225.438614 1502.062988,226.234634 1502.060791,227.031677 
	C1502.019409,242.124741 1501.995850,257.218048 1502.062622,272.310852 
	C1502.068115,273.556885 1502.746704,274.799957 1503.112549,276.044373 
	C1496.417358,281.843536 1488.438477,283.343231 1479.451172,282.903900 
z"/>
<path fill="#6F2C7D" opacity="1.000000" stroke="none" 
	d="
M1503.420410,275.911072 
	C1502.746704,274.799957 1502.068115,273.556885 1502.062622,272.310852 
	C1501.995850,257.218048 1502.019409,242.124741 1502.060791,227.031677 
	C1502.062988,226.234634 1502.435059,225.438614 1502.871216,224.296661 
	C1505.735840,227.026978 1508.364136,230.102737 1511.008911,233.839142 
	C1511.031372,234.704819 1511.037231,234.909836 1511.043213,235.114838 
	C1511.043213,235.114838 1511.039185,235.541229 1510.721436,235.920639 
	C1509.976318,236.968872 1509.187866,237.632050 1509.177246,238.307388 
	C1509.064331,245.540192 1508.993042,252.776642 1509.143311,260.007263 
	C1509.164551,261.031342 1510.429443,262.029541 1511.118774,263.039734 
	C1511.118774,263.039703 1511.039185,263.458557 1511.032227,263.979279 
	C1511.031372,264.705017 1511.037231,264.910034 1511.043213,265.115021 
	C1508.604858,268.669281 1506.166626,272.223541 1503.420410,275.911072 
z"/>
<path fill="#6E2D7D" opacity="1.000000" stroke="none" 
	d="
M1511.445068,262.848938 
	C1510.429443,262.029541 1509.164551,261.031342 1509.143311,260.007263 
	C1508.993042,252.776642 1509.064331,245.540192 1509.177246,238.307388 
	C1509.187866,237.632050 1509.976318,236.968872 1510.761230,236.130096 
	C1516.537598,244.732361 1516.670898,253.633759 1511.445068,262.848938 
z"/>
<path fill="#6E2D7D" opacity="1.000000" stroke="none" 
	d="
M1517.520020,304.983093 
	C1518.048218,310.089020 1518.206177,315.224487 1518.128418,320.704285 
	C1515.216675,316.910461 1512.540649,312.772400 1509.552124,308.151062 
	C1512.461182,306.949432 1514.805420,305.981079 1517.520020,304.983093 
z"/>
<path fill="#6E2D7D" opacity="1.000000" stroke="none" 
	d="
M1511.293091,265.018005 
	C1511.037231,264.910034 1511.031372,264.705017 1511.034180,264.192444 
	C1511.209595,264.230255 1511.376221,264.575623 1511.293091,265.018005 
z"/>
<path fill="#6E2D7D" opacity="1.000000" stroke="none" 
	d="
M1511.292969,235.017914 
	C1511.037231,234.909836 1511.031372,234.704819 1511.034180,234.192261 
	C1511.209595,234.230133 1511.376221,234.575546 1511.292969,235.017914 
z"/>
<path fill="#792B7E" opacity="1.000000" stroke="none" 
	d="
M1316.462646,281.792358 
	C1297.888794,282.462006 1279.706543,282.976105 1261.254028,283.497833 
	C1261.254028,260.868713 1261.254028,239.161789 1261.254028,217.016846 
	C1278.410767,217.016846 1295.376953,216.407578 1312.274902,217.220963 
	C1324.499634,217.809372 1335.849365,230.396790 1338.104370,242.526688 
	C1340.446777,255.126541 1337.409424,265.941742 1328.461060,274.774811 
	C1325.358032,277.837891 1320.766235,279.392975 1316.462646,281.792358 
z"/>
<path fill="#8B287F" opacity="1.000000" stroke="none" 
	d="
M946.007568,355.000183 
	C941.206421,355.000183 936.903442,355.000183 932.303833,355.000183 
	C932.303833,336.621918 932.303833,318.575928 932.303833,300.000793 
	C940.345886,300.000793 948.286255,300.000946 956.226562,300.000763 
	C965.053345,300.000580 973.935974,300.634827 982.694946,299.864075 
	C999.530762,298.382629 1012.440247,313.020874 1011.106567,328.618683 
	C1010.494080,335.781311 1008.358032,341.960541 1003.381592,347.108459 
	C998.086731,352.585693 991.339783,354.816772 983.976990,354.941864 
	C971.489807,355.154053 958.996460,355.000214 946.007568,355.000183 
z"/>
<path fill="#8C287F" opacity="1.000000" stroke="none" 
	d="
M975.999878,268.832825 
	C961.549805,268.832825 947.099670,268.832825 932.325256,268.832825 
	C932.325256,251.676575 932.325256,234.639908 932.325256,217.025787 
	C946.578491,217.025787 960.825256,217.025787 975.536011,217.554474 
	C976.000000,234.999710 975.999939,251.916275 975.999878,268.832825 
z"/>
<path fill="#8A287F" opacity="1.000000" stroke="none" 
	d="
M976.417725,268.903015 
	C975.999939,251.916275 976.000000,234.999710 975.999878,217.625183 
	C983.415100,216.291458 989.838074,218.424118 995.160889,223.652710 
	C996.213989,224.687180 996.927490,226.067413 997.679749,227.899170 
	C997.123047,229.396179 996.316223,230.276688 996.302856,231.169159 
	C996.185181,238.984802 996.130615,246.804092 996.277161,254.618164 
	C996.298828,255.771271 997.472290,256.902771 998.112793,258.044250 
	C995.563293,264.052002 990.156555,266.239838 984.522583,267.908234 
	C982.070251,268.634491 979.404419,268.640259 976.417725,268.903015 
z"/>
<path fill="#89287F" opacity="1.000000" stroke="none" 
	d="
M998.394287,257.933167 
	C997.472290,256.902771 996.298828,255.771271 996.277161,254.618164 
	C996.130615,246.804092 996.185181,238.984802 996.302856,231.169159 
	C996.316223,230.276688 997.123047,229.396179 997.833740,228.229645 
	C998.738098,228.392502 999.370667,228.835861 999.819092,229.960739 
	C999.677673,239.056061 999.720398,247.469849 999.763123,255.883636 
	C999.400696,256.529755 999.038269,257.175873 998.394287,257.933167 
z"/>
<path fill="#89287F" opacity="1.000000" stroke="none" 
	d="
M999.975830,255.575958 
	C999.720398,247.469849 999.677673,239.056061 999.871277,230.296799 
	C1004.252686,238.377151 1004.527283,246.815323 999.975830,255.575958 
z"/>
<path fill="#96267F" opacity="1.000000" stroke="none" 
	d="
M803.258789,346.311005 
	C792.616150,352.041229 781.627686,354.344971 769.887512,354.078094 
	C755.445679,353.749786 740.990723,353.999664 726.272644,353.999664 
	C726.272644,308.575012 726.272644,263.550079 726.272644,217.999863 
	C742.346619,217.999863 758.282715,217.780670 774.206970,218.117523 
	C779.858215,218.237076 785.646423,219.126068 791.086487,220.670105 
	C809.864197,225.999725 822.527954,238.830658 829.468018,256.384430 
	C837.918457,277.758209 837.517029,299.533966 827.077515,320.500305 
	C821.729553,331.241058 814.257446,340.184204 803.258789,346.311005 
z"/>
<path fill="#82297E" opacity="1.000000" stroke="none" 
	d="
M1160.536621,217.095062 
	C1161.000488,233.749908 1161.000244,250.333939 1161.000244,267.376038 
	C1144.217529,267.834106 1127.434448,267.834106 1110.326660,267.834106 
	C1110.326660,251.011337 1110.326660,234.305283 1110.326660,217.024261 
	C1126.914185,217.024261 1143.493408,217.024261 1160.536621,217.095062 
z"/>
</svg>